<svg width="27" height="25" viewBox="0 0 27 25" fill="none" xmlns="http://www.w3.org/2000/svg">
<path d="M16.6683 0.404785H9.92108C9.6893 0.404785 9.50903 0.597931 9.50903 0.829705C9.36739 7.3709 6.05817 13.5773 0.353944 17.9681C0.173675 18.1098 0.135046 18.3673 0.263809 18.5605L4.21685 24.1874C4.34562 24.3806 4.61602 24.4192 4.79629 24.2776C8.36304 21.5478 11.2345 18.2514 13.2947 14.6074C15.3549 18.2643 18.2263 21.5478 21.7931 24.2776C21.9734 24.4192 22.2438 24.3806 22.3725 24.1874L26.3256 18.5605C26.4543 18.3673 26.4157 18.1098 26.2354 17.9681C20.5312 13.5773 17.222 7.3709 17.0803 0.829705C17.0803 0.585055 16.9001 0.404785 16.6683 0.404785Z" fill="#FF875B"/>
</svg>
