<svg width="22" height="22" viewBox="0 0 22 22" fill="none" xmlns="http://www.w3.org/2000/svg">
<path d="M9.9502 11.7L8.5002 10.275C8.31686 10.0917 8.08786 10 7.8132 10C7.53853 10 7.30086 10.1 7.1002 10.3C6.91686 10.4834 6.8252 10.7167 6.8252 11C6.8252 11.2834 6.91686 11.5167 7.1002 11.7L9.2502 13.85C9.4502 14.05 9.68353 14.15 9.9502 14.15C10.2169 14.15 10.4502 14.05 10.6502 13.85L14.9002 9.60004C15.1002 9.40004 15.1959 9.16671 15.1872 8.90004C15.1785 8.63337 15.0829 8.40004 14.9002 8.20004C14.7002 8.00004 14.4629 7.89604 14.1882 7.88804C13.9135 7.88004 13.6759 7.97571 13.4752 8.17504L9.9502 11.7ZM7.1502 20.75L5.7002 18.3L2.9502 17.7C2.7002 17.65 2.5002 17.521 2.3502 17.313C2.2002 17.105 2.14186 16.8757 2.1752 16.625L2.4502 13.8L0.575195 11.65C0.408529 11.4667 0.325195 11.25 0.325195 11C0.325195 10.75 0.408529 10.5334 0.575195 10.35L2.4502 8.20004L2.1752 5.37504C2.14186 5.12504 2.2002 4.89571 2.3502 4.68704C2.5002 4.47837 2.7002 4.34937 2.9502 4.30004L5.7002 3.70004L7.1502 1.25004C7.28353 1.03337 7.46686 0.887373 7.7002 0.812039C7.93353 0.736706 8.16686 0.749373 8.4002 0.850039L11.0002 1.95004L13.6002 0.850039C13.8335 0.750039 14.0669 0.737373 14.3002 0.812039C14.5335 0.886706 14.7169 1.03271 14.8502 1.25004L16.3002 3.70004L19.0502 4.30004C19.3002 4.35004 19.5002 4.47937 19.6502 4.68804C19.8002 4.89671 19.8585 5.12571 19.8252 5.37504L19.5502 8.20004L21.4252 10.35C21.5919 10.5334 21.6752 10.75 21.6752 11C21.6752 11.25 21.5919 11.4667 21.4252 11.65L19.5502 13.8L19.8252 16.625C19.8585 16.875 19.8002 17.1044 19.6502 17.313C19.5002 17.5217 19.3002 17.6507 19.0502 17.7L16.3002 18.3L14.8502 20.75C14.7169 20.9667 14.5335 21.1127 14.3002 21.188C14.0669 21.2634 13.8335 21.2507 13.6002 21.15L11.0002 20.05L8.4002 21.15C8.16686 21.25 7.93353 21.2627 7.7002 21.188C7.46686 21.1134 7.28353 20.9674 7.1502 20.75Z" fill="#0D99FF"/>
</svg>
