<svg width="164" height="164" viewBox="0 0 164 164" fill="none" xmlns="http://www.w3.org/2000/svg">
<path d="M82 112.49C83.1936 112.49 84.1935 112.087 84.9998 111.281C85.8016 110.475 86.2025 109.475 86.2025 108.281C86.2025 107.092 85.7993 106.094 84.993 105.288C84.1867 104.482 83.189 104.076 82 104.072C80.811 104.067 79.8133 104.47 79.007 105.281C78.2007 106.092 77.7975 107.09 77.7975 108.274C77.7975 109.459 78.2007 110.459 79.007 111.274C79.8133 112.089 80.811 112.499 82 112.49ZM82 89.8788C82.9749 89.8788 83.7881 89.5508 84.4395 88.8948C85.091 88.2388 85.4167 87.4279 85.4167 86.4622V52.2955C85.4167 51.3252 85.0887 50.5143 84.4327 49.8628C83.7767 49.2114 82.9635 48.8834 81.9932 48.8788C81.0228 48.8743 80.2119 49.2023 79.5605 49.8628C78.9091 50.5234 78.5833 51.3343 78.5833 52.2955V86.4622C78.5833 87.4279 78.9113 88.2388 79.5673 88.8948C80.2233 89.5508 81.0365 89.8788 82.0068 89.8788M82.0205 143.5C73.5153 143.5 65.5203 141.887 58.0355 138.662C50.5507 135.432 44.0386 131.05 38.499 125.515C32.9594 119.98 28.5747 113.474 25.3448 105.999C22.1149 98.523 20.5 90.5303 20.5 82.0205C20.5 73.5107 22.1149 65.5157 25.3448 58.0355C28.5702 50.5507 32.9458 44.0386 38.4717 38.499C43.9976 32.9594 50.5052 28.5747 57.9945 25.3448C65.4838 22.1149 73.4788 20.5 81.9795 20.5C90.4802 20.5 98.4752 22.1149 105.965 25.3448C113.449 28.5702 119.961 32.9481 125.501 38.4785C131.041 44.0089 135.425 50.5166 138.655 58.0013C141.885 65.4861 143.5 73.4788 143.5 81.9795C143.5 90.4802 141.887 98.4752 138.662 105.965C135.437 113.454 131.054 119.966 125.515 125.501C119.975 131.036 113.47 135.421 105.999 138.655C98.5276 141.89 90.5348 143.505 82.0205 143.5ZM82 136.667C97.2611 136.667 110.188 131.371 120.779 120.779C131.371 110.188 136.667 97.2611 136.667 82C136.667 66.7389 131.371 53.8125 120.779 43.2208C110.188 32.6292 97.2611 27.3333 82 27.3333C66.7389 27.3333 53.8125 32.6292 43.2208 43.2208C32.6292 53.8125 27.3333 66.7389 27.3333 82C27.3333 97.2611 32.6292 110.188 43.2208 120.779C53.8125 131.371 66.7389 136.667 82 136.667Z" fill="#EF664A"/>
</svg>
