<svg width="181" height="73" viewBox="0 0 181 73" fill="none" xmlns="http://www.w3.org/2000/svg">
<path d="M115.123 25L109.26 47.5119H106.899L102.062 29.234L97.1953 47.5119H94.8607L89 25H91.3323L96.0856 43.4452L100.952 25H103.142L108.009 43.4452L112.76 25H115.121H115.123Z" fill="#EBFFCB"/>
<path d="M128.269 38.8084V39.7499H116.233C116.328 41.5413 116.869 42.9823 117.854 44.0676C118.84 45.1556 119.969 45.6969 121.241 45.6969C123.536 45.6969 125.13 44.5096 126.021 42.135L127.954 42.6737C127.405 44.3762 126.546 45.6812 125.381 46.5887C124.213 47.4962 122.833 47.9486 121.241 47.9486C119.305 47.9486 117.637 47.1431 116.233 45.5296C114.829 43.916 114.126 41.8342 114.126 39.2792C114.126 36.7241 114.837 34.6031 116.262 32.9791C117.684 31.355 119.391 30.5443 121.385 30.5443C123.378 30.5443 124.909 31.3106 126.209 32.8457C127.509 34.3808 128.196 36.3684 128.271 38.8084H128.269ZM121.383 32.7934C120.169 32.7934 119.072 33.2458 118.096 34.1533C117.119 35.0608 116.525 36.2873 116.317 37.8329H126.078C125.888 36.2429 125.356 35.0059 124.484 34.1193C123.611 33.2354 122.576 32.7934 121.383 32.7934Z" fill="#EBFFCB"/>
<path d="M135.667 30.5442C137.45 30.5442 138.863 31.0882 139.906 32.1735C140.95 33.2615 141.472 34.7888 141.472 36.7606V47.5118H139.366V44.9907C138.114 46.9626 136.358 47.9486 134.101 47.9486C132.564 47.9486 131.33 47.4778 130.402 46.5363C129.472 45.5949 129.009 44.3762 129.009 42.875C129.009 41.3739 129.503 40.082 130.488 39.13C131.474 38.1781 132.861 37.7021 134.644 37.7021H139.368V36.928C139.368 35.6518 139.045 34.6423 138.4 33.9048C137.756 33.1647 136.883 32.7959 135.782 32.7959C134.681 32.7959 133.837 33.0941 133.135 33.6851C132.433 34.2788 132.006 35.0921 131.855 36.1199L129.777 35.5812C130.006 34.08 130.659 32.8666 131.74 31.9355C132.821 31.0071 134.13 30.5416 135.667 30.5416V30.5442ZM134.415 45.8328C135.8 45.8328 136.971 45.3281 137.931 44.3212C138.887 43.3144 139.368 42.0695 139.368 40.5919V39.7184H134.617C133.498 39.7184 132.63 40.0035 132.012 40.5762C131.396 41.1464 131.089 41.9022 131.089 42.8436C131.089 43.7171 131.392 44.4337 131.999 44.9934C132.606 45.553 133.412 45.8328 134.418 45.8328H134.415Z" fill="#EBFFCB"/>
<path d="M156.44 30.947L150.236 47.5119H147.875L141.671 30.947H144.032L149.069 44.486L154.077 30.947H156.438H156.44Z" fill="#EBFFCB"/>
<path d="M170.156 38.8084V39.7499H158.12C158.215 41.5413 158.755 42.9823 159.741 44.0676C160.727 45.1556 161.856 45.6969 163.128 45.6969C165.422 45.6969 167.017 44.5096 167.907 42.135L169.843 42.6737C169.294 44.3762 168.435 45.6812 167.267 46.5887C166.1 47.4962 164.72 47.9486 163.128 47.9486C161.192 47.9486 159.524 47.1431 158.12 45.5296C156.715 43.916 156.013 41.8342 156.013 39.2792C156.013 36.7241 156.724 34.6031 158.148 32.9791C159.57 31.355 161.278 30.5443 163.269 30.5443C165.261 30.5443 166.793 31.3106 168.093 32.8457C169.394 34.3808 170.08 36.3684 170.156 38.8084ZM163.269 32.7934C162.056 32.7934 160.959 33.2458 159.982 34.1533C159.006 35.0608 158.412 36.2873 158.204 37.8329H167.965C167.775 36.2429 167.243 35.0059 166.37 34.1193C165.498 33.2354 164.463 32.7934 163.269 32.7934Z" fill="#EBFFCB"/>
<path d="M180.003 30.7797C180.402 30.7797 180.734 30.8241 181 30.913L180.829 33.3661C180.659 33.3452 180.384 33.3321 180.003 33.3321C178.2 33.3321 176.811 34.0487 175.835 35.4818C174.858 36.915 174.368 38.7979 174.368 41.1255V47.5093H172.178V30.947H174.368V35.0137C175.677 32.1919 177.556 30.7797 180.003 30.7797Z" fill="#EBFFCB"/>
<path d="M92.9873 36.6822C92.9873 36.6822 95.4902 38.7717 99.0895 36.507" stroke="#EBFFCB" stroke-width="0.715042" stroke-miterlimit="10"/>
<path d="M92.3223 34.3285C92.3223 34.3285 95.1375 35.7408 99.1842 34.1533" stroke="#EBFFCB" stroke-width="0.715042" stroke-miterlimit="10"/>
<path d="M92.3223 31.9749C92.3223 31.9749 95.5627 33.3871 99.7556 31.7997" stroke="#EBFFCB" stroke-width="0.715042" stroke-miterlimit="10"/>
<path d="M91.2153 29.1844C91.2153 29.1844 95.1003 31.6871 100.711 28.9229" stroke="#EBFFCB" stroke-width="0.715042" stroke-miterlimit="10"/>
<path d="M90.9937 26.339C90.9937 26.339 95.1777 28.8418 101.22 26.0775" stroke="#EBFFCB" stroke-width="0.715042" stroke-miterlimit="10"/>
<path d="M104.947 36.6822C104.947 36.6822 107.45 38.7717 111.049 36.507" stroke="#EBFFCB" stroke-width="0.715042" stroke-miterlimit="10"/>
<path d="M92.9873 39.2974C92.9873 39.2974 95.4902 41.387 99.0895 39.1222" stroke="#EBFFCB" stroke-width="0.715042" stroke-miterlimit="10"/>
<path d="M104.947 39.2974C104.947 39.2974 107.45 41.387 111.049 39.1222" stroke="#EBFFCB" stroke-width="0.715042" stroke-miterlimit="10"/>
<path d="M104.504 34.3285C104.504 34.3285 107.393 35.7408 111.541 34.1533" stroke="#EBFFCB" stroke-width="0.715042" stroke-miterlimit="10"/>
<path d="M104.062 31.9749C104.062 31.9749 107.331 33.3871 111.564 31.7997" stroke="#EBFFCB" stroke-width="0.715042" stroke-miterlimit="10"/>
<path d="M103.176 29.1844C103.176 29.1844 107.114 31.6871 112.804 28.9229" stroke="#EBFFCB" stroke-width="0.715042" stroke-miterlimit="10"/>
<path d="M102.29 26.339C102.29 26.339 107.027 28.8418 113.871 26.0775" stroke="#EBFFCB" stroke-width="0.715042" stroke-miterlimit="10"/>
<path d="M38.1396 1C56.797 1 71.999 16.8501 71.999 36.5C71.999 56.1499 56.7969 72 38.1396 72C19.4825 71.9999 4.28028 56.1498 4.28027 36.5C4.28027 16.8501 19.4824 1.00013 38.1396 1Z" fill="#E0FFB1" stroke="#626262" stroke-width="2"/>
<path d="M38.1401 2.95154C55.7719 2.95154 70.1392 17.9305 70.1392 36.5004C70.139 55.07 55.7718 70.0482 38.1401 70.0482C20.5085 70.0481 6.14229 55.07 6.14209 36.5004C6.14209 17.9306 20.5084 2.95164 38.1401 2.95154Z" fill="#8BB151" stroke="#626262" stroke-width="1.89007"/>
<g clip-path="url(#clip0_819_1109)">
<path d="M38.1059 49.3292C41.0344 49.3292 43.9631 47.262 44.1557 43.1275C44.5781 43.769 44.9712 44.359 45.1652 44.6493C44.6451 46.2837 44.3245 50.8666 44.6608 53.5297C44.9031 55.0871 44.0116 62.9455 44.0093 62.9641C45.9557 60.4924 47.1421 56.5139 47.2478 53.7497C48.5883 49.6384 47.8409 44.5109 47.4829 43.687C47.1292 42.4758 45.2359 40.0667 43.6979 38.2698C43.8453 38.313 43.9652 38.3462 44.05 38.3692C44.8005 39.2994 45.8658 39.5032 46.1344 39.5658C49.693 40.9618 51.6354 42.0721 53.2303 44.1897C52.5844 41.8818 49.2994 38.601 47.3581 37.834C46.7184 37.087 45.7233 36.7313 45.357 36.6204C44.4995 35.7404 43.3561 35.2411 42.3981 35.1574C45.3817 33.9749 46.389 32.2919 46.7578 31.8877C48.2525 31.4804 49.426 30.2031 49.5739 29.5536L57.8549 19.9947L47.8236 27.7595C46.6367 28.3259 45.5601 29.4945 45.2433 29.8572C44.5946 30.1454 43.9224 30.5348 43.2876 30.9491L49.7629 21.9686L49.8739 21.6639C50.1606 18.3906 49.7232 12.9953 49.0834 10.3055L47.2478 21.0637C44.8346 24.3602 42.4301 27.6461 40.0568 30.9744C39.6666 30.3953 38.8601 30.3521 38.1059 30.9361C37.3518 30.3521 36.5453 30.3953 36.1551 30.9744C33.7818 27.6461 31.3771 24.3602 28.9641 21.0637L27.1284 10.3055C26.4887 12.9953 26.0511 18.3906 26.3379 21.6639L26.449 21.9686L32.9243 30.9491C32.2895 30.5348 31.6173 30.1454 30.9685 29.8572C30.6518 29.4945 29.5752 28.3259 28.3883 27.7595L18.3569 19.9947L26.6379 29.5536C26.7859 30.2031 27.9594 31.4804 29.454 31.8877C29.8229 32.2919 30.8301 33.9749 33.8137 35.1574C32.8555 35.2411 31.7124 35.7404 30.8549 36.6204C30.4886 36.7313 29.4935 37.087 28.8538 37.834C26.9124 38.601 23.6275 41.8818 22.9816 44.1897C24.5765 42.0721 26.5189 40.9618 30.0775 39.5658C30.3461 39.5032 31.4113 39.2994 32.1619 38.3692C32.2467 38.3462 32.3665 38.313 32.514 38.2698C30.976 40.0667 29.0826 42.4758 28.729 43.687C28.371 44.5109 27.6235 49.6384 28.9641 53.7497C29.0697 56.5139 30.2561 60.4924 32.2026 62.9641C32.2003 62.9455 31.3088 55.0871 31.551 53.5297C31.8874 50.8666 31.5668 46.2837 31.0466 44.6493C31.2407 44.359 31.6338 43.769 32.0562 43.1275C32.2487 47.262 35.1775 49.3292 38.1059 49.3292Z" fill="#2B4701"/>
<path d="M41.5763 46.6358C43.5096 44.5165 43.5098 41.0657 41.5763 38.9464C39.672 36.8592 36.5394 36.8592 34.6352 38.9464C32.7017 41.0657 32.7017 44.5165 34.6352 46.6358C36.5394 48.7227 39.672 48.7227 41.5763 46.6358Z" fill="#E0FFB0"/>
<path d="M48.3563 29.2599L48.0354 28.9701C47.324 29.3649 46.7557 29.9268 46.3335 30.3642L46.6232 30.7167C47.1593 30.4242 47.8029 29.9468 48.3563 29.2599Z" fill="#E0FFB0"/>
<path d="M45.9342 43.6951L46.1685 43.5496C45.5579 42.4294 44.5089 41.0531 43.5444 39.8832C43.6078 40.0241 43.6666 40.1674 43.721 40.3134C44.212 41.137 45.3285 42.6043 45.9342 43.6951Z" fill="#E0FFB0"/>
<path d="M45.8115 52.9325L46.2695 52.9973C46.6762 50.4243 46.96 46.0279 46.4654 44.7473L46.2842 44.8599C46.0834 46.6823 45.8778 51.3457 45.8115 52.9325Z" fill="#E0FFB0"/>
<path d="M40.5677 32.7486L48.7601 21.3865C48.865 20.0965 48.8817 18.7466 48.8534 17.4817L48.3518 21.3794C45.6834 25.0875 43.0292 28.7952 40.3765 32.5157C40.4378 32.5848 40.5022 32.6625 40.5677 32.7486Z" fill="#E0FFB0"/>
<path d="M41.2872 34.4061C43.5605 33.3047 45.0309 31.9907 45.658 31.363L45.4216 31.0753C43.7277 31.8928 41.9024 33.3824 41.1934 33.9875C41.2315 34.1205 41.2635 34.2598 41.2872 34.4061Z" fill="#E0FFB0"/>
<path d="M35.6449 32.7486L27.4523 21.3865C27.3474 20.0965 27.3307 18.7466 27.3588 17.4817L27.8606 21.3794C30.529 25.0875 33.1832 28.7952 35.8359 32.5157C35.7746 32.5848 35.7102 32.6625 35.6449 32.7486Z" fill="#E0FFB0"/>
<path d="M30.5542 31.363L30.7908 31.0753C32.4842 31.8925 34.31 33.3827 35.0191 33.9878C34.9809 34.1205 34.949 34.2601 34.9255 34.4061C32.652 33.3045 31.1813 31.9907 30.5542 31.363Z" fill="#E0FFB0"/>
<path d="M27.856 29.2599L28.1768 28.9701C28.8882 29.3649 29.4565 29.9268 29.8787 30.3642L29.589 30.7167C29.0529 30.4242 28.4093 29.9468 27.856 29.2599Z" fill="#E0FFB0"/>
<path d="M30.2782 43.6951L30.0439 43.5496C30.6543 42.4294 31.7033 41.0533 32.6678 39.8837C32.6044 40.0243 32.5453 40.1678 32.4912 40.3136C32 41.1375 30.8837 42.6045 30.2782 43.6951Z" fill="#E0FFB0"/>
<path d="M30.124 54.1698L30.3699 54.135C30.3405 54.9967 30.3895 56.1229 30.4704 57.2636C30.231 55.8471 30.1609 54.8081 30.124 54.1698Z" fill="#E0FFB0"/>
<path d="M39.8399 36.4534C40.8606 34.2202 39.2912 33.0757 39.2865 33.0722L38.9435 32.8158C38.9435 32.8158 38.985 33.6357 38.1061 33.6357C37.2272 33.6357 37.2687 32.8158 37.2687 32.8158L36.9256 33.0722C36.921 33.0757 35.3516 34.2202 36.3722 36.4534C36.9331 36.271 37.5197 36.18 38.1061 36.18C38.6924 36.18 39.279 36.271 39.8399 36.4534Z" fill="#E0FFB0"/>
<path d="M41.1476 44.8933C39.9901 46.9923 36.2219 46.9923 35.0644 44.8933C35.0644 44.8933 35.1139 45.565 35.6469 46.2472C35.6469 46.2472 33.6494 45.7741 33.2891 43.9015C33.4782 44.9043 33.9272 45.8594 34.6355 46.6358C35.5876 47.6791 36.8469 48.2011 38.106 48.2011C39.3651 48.2011 40.6244 47.6791 41.5765 46.6358C42.2848 45.8594 42.7338 44.9043 42.923 43.9015C42.5626 45.7741 40.5651 46.2472 40.5651 46.2472C41.0981 45.565 41.1476 44.8933 41.1476 44.8933Z" fill="#70750B"/>
<path d="M36.3726 36.4533C37.5278 35.4435 38.685 35.4435 39.8402 36.4533C38.7193 36.089 37.4935 36.089 36.3726 36.4533Z" fill="#70750B"/>
<path d="M40.8701 41.7714C41.6614 40.901 42.014 39.7255 41.6794 39.0627C41.6459 39.0235 41.6114 38.9847 41.5766 38.9464C41.4954 38.8573 41.4119 38.772 41.3263 38.6908C40.4095 37.8175 39.2579 37.3811 38.1061 37.3811C36.9542 37.3811 35.8026 37.8175 34.8859 38.6908C34.8003 38.772 34.7168 38.8573 34.6356 38.9464C34.6008 38.9847 34.5663 39.0235 34.5327 39.0627C34.1982 39.7255 34.5508 40.901 35.3421 41.7714C35.3421 41.7714 35.273 41.1925 35.3913 40.7272C35.3913 40.7272 35.9537 42.5672 38.1061 42.5672C40.2585 42.5672 40.8209 40.7272 40.8209 40.7272C40.9392 41.1925 40.8701 41.7714 40.8701 41.7714Z" fill="#F9FCBA"/>
<path d="M44.3644 31.6553C44.3644 31.6553 43.8698 32.7893 42.5986 33.7009C44.1348 32.789 45.1614 31.8604 45.6583 31.363L45.4219 31.0753C45.0714 31.2445 44.7152 31.4423 44.3644 31.6553Z" fill="#F9FCBA"/>
<path d="M47.4027 29.386C47.4027 29.386 47.627 29.9978 47.0024 30.4887C47.4468 30.1967 47.9283 29.7908 48.3561 29.2599L48.0352 28.9701C47.8102 29.095 47.5994 29.2367 47.4027 29.386Z" fill="#F9FCBA"/>
<path d="M44.9373 41.6638C44.4922 41.0568 44.0084 40.4461 43.5444 39.8832C43.6078 40.0241 43.6666 40.1674 43.721 40.3134C44.0187 40.8123 44.5458 41.548 45.0499 42.2926C44.9981 42.061 44.962 41.85 44.9373 41.6638Z" fill="#70750B"/>
<path d="M31.8481 31.6553C31.8481 31.6553 32.3427 32.7893 33.6139 33.7009C32.0777 32.789 31.0511 31.8604 30.5542 31.363L30.7905 31.0753C31.1411 31.2445 31.4973 31.4423 31.8481 31.6553Z" fill="#F9FCBA"/>
<path d="M28.8091 29.386C28.8091 29.386 28.5851 29.9978 29.2096 30.4887C28.7653 30.1967 28.2838 29.7908 27.856 29.2599L28.1768 28.9701C28.4019 29.095 28.6127 29.2367 28.8091 29.386Z" fill="#F9FCBA"/>
<path d="M31.2752 41.6638C31.7204 41.0568 32.2039 40.4461 32.6681 39.8832C32.6047 40.0241 32.5459 40.1674 32.4915 40.3134C32.1938 40.8123 31.6667 41.548 31.1626 42.2926C31.2144 42.061 31.2505 41.85 31.2752 41.6638Z" fill="#70750B"/>
<path d="M38.1063 34.3719C40.463 34.3719 39.5138 33.2827 39.5138 33.2827C39.3844 33.1434 39.288 33.073 39.2867 33.0722L38.9437 32.8158C38.9437 32.8158 38.9852 33.6357 38.1063 33.6357C37.2273 33.6357 37.2688 32.8158 37.2688 32.8158L36.9258 33.0722C36.9245 33.073 36.8281 33.1434 36.6987 33.2827C36.6987 33.2827 35.7495 34.3719 38.1063 34.3719Z" fill="#F9FCBA"/>
<path d="M27.4522 21.3865L27.8605 21.3794L27.3589 17.4817C27.3305 18.7466 27.3476 20.0965 27.4522 21.3865Z" fill="#F9FCBA"/>
<path d="M48.8531 17.4817L48.3516 21.3794L48.7598 21.3865C48.8645 20.0965 48.8815 18.7466 48.8531 17.4817Z" fill="#F9FCBA"/>
<path d="M42.0663 34.0043C41.9372 33.6588 42.1563 33.2014 42.1563 33.2014C41.7506 33.5188 41.4166 33.797 41.1934 33.9876C41.2315 34.1206 41.2635 34.2598 41.2869 34.4061C41.5583 34.2747 41.8181 34.1403 42.0663 34.0043Z" fill="#70750B"/>
<path d="M34.1461 34.0043C34.275 33.6588 34.0562 33.2014 34.0562 33.2014C34.4618 33.5188 34.7959 33.797 35.0191 33.9876C34.9809 34.1206 34.949 34.2598 34.9253 34.4061C34.6541 34.2747 34.3943 34.1403 34.1461 34.0043Z" fill="#70750B"/>
<path d="M45.9658 49.591C46.6109 49.0518 46.7094 48.2772 46.7094 48.2772C46.7628 46.7411 46.7068 45.3726 46.4653 44.7473L46.2841 44.8599C46.171 45.8875 46.0563 47.8179 45.9658 49.591Z" fill="#F9FCBA"/>
<path d="M30.4009 52.9325L29.9429 52.9973C29.5362 50.4243 29.2524 46.0279 29.747 44.7473L29.9282 44.8599C30.129 46.6823 30.3347 51.3457 30.4009 52.9325Z" fill="#E0FFB0"/>
<path d="M30.2465 49.591C29.6014 49.0518 29.5029 48.2772 29.5029 48.2772C29.4496 46.7411 29.5055 45.3726 29.747 44.7473L29.9282 44.8599C30.0413 45.8875 30.156 47.8179 30.2465 49.591Z" fill="#F9FCBA"/>
<path d="M46.0886 54.1698L45.8427 54.135C45.8721 54.9967 45.8231 56.1229 45.7422 57.2636C45.9816 55.8471 46.0517 54.8081 46.0886 54.1698Z" fill="#E0FFB0"/>
</g>
<path d="M7.50769 31.9332C7.50769 26.8774 4.14798 22.7825 0 22.7825C4.14798 22.7825 7.50769 18.6876 7.50769 13.6318C7.50769 18.6876 10.8674 22.7825 15.0154 22.7825C10.8674 22.7825 7.50769 26.8774 7.50769 31.9332Z" fill="#FFF363"/>
<defs>
<clipPath id="clip0_819_1109">
<rect width="39.498" height="52.6586" fill="white" transform="translate(18.3569 10.3055)"/>
</clipPath>
</defs>
</svg>
