<svg width="65" height="52" viewBox="0 0 65 52" fill="none" xmlns="http://www.w3.org/2000/svg">
<path d="M41.083 20.4021L35.1142 17.6457L28.1365 14.4178L18.3898 9.91068L7.88123 5.05005V32.863L45.7015 50.3528V22.54L41.083 20.4021ZM18.3898 17.9402C18.3898 17.9402 18.4266 17.9192 18.4476 17.9108C19.1885 17.5741 20.0763 17.6457 21.1167 18.1254C22.157 18.6052 23.0503 19.3585 23.7912 20.3811C24.1485 20.8735 24.4217 21.3616 24.6004 21.8413C24.8 22.3505 24.8999 22.8555 24.8999 23.3521C24.8999 23.8487 24.8053 24.2485 24.6056 24.5768C24.427 24.8882 24.1537 25.128 23.7912 25.2922C23.1817 25.5699 22.4671 25.5699 21.6527 25.2922H21.6474C21.474 25.2333 21.3006 25.1618 21.1167 25.0776C20.0763 24.5978 19.1885 23.8445 18.4476 22.8219C18.4266 22.7924 18.4055 22.7672 18.3898 22.7377C17.6857 21.7445 17.3337 20.7808 17.3337 19.8508C17.3337 18.9207 17.6857 18.2853 18.3898 17.9402ZM28.683 35.5269L13.5558 28.5326V27.5773C13.5558 26.2727 14.2442 25.5573 15.6313 25.4311C16.4089 25.3595 17.3284 25.4731 18.3898 25.7761C18.7471 25.8771 19.1202 26.0034 19.5142 26.1465C20.0187 26.3316 20.5545 26.5589 21.1167 26.8156C23.3865 27.8635 25.2151 29.0965 26.6023 30.5021C27.548 31.4658 28.1732 32.4043 28.4727 33.3175C28.6145 33.7383 28.683 34.1591 28.683 34.5716V35.5269ZM40.0321 35.5605L30.5744 31.1881V27.712L34.6045 29.5763L40.0321 32.0844V35.5605ZM40.0321 30.3464L39.1652 29.9466L36.6168 28.7683L30.5744 25.9739V22.4979L34.6045 24.3621L35.0616 24.5725L40.0321 26.8703V30.3464Z" fill="#CBF785" stroke="#121109" stroke-width="0.159836" stroke-linecap="round" stroke-linejoin="round"/>
<path d="M34.605 24.3621L30.5749 25.9739V22.4978L34.605 24.3621Z" fill="white" stroke="#121109" stroke-width="0.159836" stroke-linecap="round" stroke-linejoin="round"/>
<path d="M24.9 23.3523C24.9 23.8404 24.8054 24.2486 24.6058 24.5769C24.4271 24.8883 24.1539 25.1281 23.7913 25.2923C23.1818 25.57 22.4672 25.57 21.6528 25.2923H21.6476C21.4742 25.2334 21.3007 25.1619 21.1168 25.0777C20.0765 24.598 19.1886 23.8446 18.4478 22.822C18.4267 22.7925 18.4057 22.7673 18.3899 22.7379C17.6858 21.7447 17.3338 20.781 17.3338 19.8509C17.3338 18.9209 17.6858 18.2854 18.3899 17.9403C18.4057 17.9277 18.4267 17.9193 18.4478 17.9109C19.1886 17.5742 20.0765 17.6458 21.1168 18.1255C22.1572 18.6053 23.0505 19.3586 23.7913 20.3812C24.1486 20.8736 24.4219 21.3617 24.6005 21.8415C24.8002 22.3507 24.9 22.8557 24.9 23.3523Z" fill="white" stroke="#121109" stroke-width="0.159836" stroke-linecap="round" stroke-linejoin="round"/>
<path d="M40.0326 32.0843V35.5604L30.5749 31.188L34.605 29.5762L40.0326 32.0843Z" fill="white" stroke="#121109" stroke-width="0.159836" stroke-linecap="round" stroke-linejoin="round"/>
<path d="M34.605 29.5762L30.5749 31.188V27.7119L34.605 29.5762Z" fill="white" stroke="#121109" stroke-width="0.159836" stroke-linecap="round" stroke-linejoin="round"/>
<path d="M40.0326 26.8702V30.3463L39.1657 29.9465L36.6173 28.7682L30.5749 25.9739L34.605 24.3621L35.0621 24.5725L40.0326 26.8702Z" fill="white" stroke="#121109" stroke-width="0.159836" stroke-linecap="round" stroke-linejoin="round"/>
<path d="M19.5146 26.1465L18.3901 26.5968L13.5562 28.5326V27.5773C13.5562 26.2727 14.2445 25.5574 15.6317 25.4311C16.4093 25.3596 17.3288 25.4731 18.3901 25.7761C18.7474 25.8771 19.1205 26.0034 19.5146 26.1465Z" fill="white" stroke="#121109" stroke-width="0.159836" stroke-linecap="round" stroke-linejoin="round"/>
<path d="M28.6833 34.5716V35.5269L13.5562 28.5326L18.3901 26.5968L19.5146 26.1465C20.019 26.3317 20.5549 26.5589 21.1171 26.8156C23.3869 27.8635 25.2155 29.0965 26.6026 30.5021C27.5484 31.4658 28.1736 32.4043 28.4731 33.3175C28.6149 33.7383 28.6833 34.1592 28.6833 34.5716Z" fill="white" stroke="#121109" stroke-width="0.159836" stroke-linecap="round" stroke-linejoin="round"/>
<path d="M56.2102 18.3315V46.1444L45.7017 50.3528V22.5399L48.1555 21.5593L56.2102 18.3315Z" fill="#EDFFD0" stroke="#121109" stroke-width="0.159836" stroke-linecap="round" stroke-linejoin="round"/>
<path d="M56.2101 18.3317L48.1553 21.5595L45.7015 22.5401L41.0829 20.4022L35.1142 17.6458L28.1365 14.4179L18.3898 9.91077L7.88123 5.05014L18.3898 0.841797L56.2101 18.3317Z" fill="#EDFFD0" stroke="#121109" stroke-width="0.159836" stroke-linecap="round" stroke-linejoin="round"/>
</svg>
