<svg width="52" height="55" viewBox="0 0 52 55" fill="none" xmlns="http://www.w3.org/2000/svg">
<path d="M33.7498 0.75C35.1201 0.75 36.4343 1.29434 37.4032 2.26328C38.3722 3.23222 38.9165 4.54638 38.9165 5.91667V16.25H44.0832C45.4535 16.25 46.7676 16.7943 47.7366 17.7633C48.7055 18.7322 49.2498 20.0464 49.2498 21.4167V42.0833C49.935 42.0833 50.5921 42.3555 51.0765 42.84C51.561 43.3244 51.8332 43.9815 51.8332 44.6667C51.8332 45.3518 51.561 46.0089 51.0765 46.4934C50.5921 46.9778 49.935 47.25 49.2498 47.25H2.74984C2.06469 47.25 1.40761 46.9778 0.923145 46.4934C0.438676 46.0089 0.166504 45.3518 0.166504 44.6667C0.166504 43.9815 0.438676 43.3244 0.923145 42.84C1.40761 42.3555 2.06469 42.0833 2.74984 42.0833V16.25C2.74984 14.8797 3.29418 13.5656 4.26312 12.5966C5.23206 11.6277 6.54622 11.0833 7.9165 11.0833H13.0832V5.91667C13.0832 4.54638 13.6275 3.23222 14.5965 2.26328C15.5654 1.29434 16.8796 0.75 18.2498 0.75H33.7498ZM13.0832 16.25H7.9165V42.0833H13.0832V16.25ZM44.0832 21.4167H38.9165V42.0833H44.0832V21.4167ZM33.7498 5.91667H18.2498V42.0833H33.7498V5.91667ZM28.5832 31.75V36.9167H23.4165V31.75H28.5832ZM28.5832 21.4167V26.5833H23.4165V21.4167H28.5832ZM28.5832 11.0833V16.25H23.4165V11.0833H28.5832Z" fill="#444444"/>
</svg>
