<svg width="68" height="68" viewBox="0 0 68 68" fill="none" xmlns="http://www.w3.org/2000/svg">
<path d="M52.7456 56.6667H54.1345C57.3923 56.6667 59.9836 55.1823 62.3104 53.1069C68.221 47.8341 54.3266 42.5 49.5833 42.5M43.9167 14.3615C44.5601 14.2339 45.2282 14.1667 45.9136 14.1667C51.07 14.1667 55.25 17.9723 55.25 22.6667C55.25 27.3611 51.07 31.1667 45.9136 31.1667C45.2282 31.1667 44.5601 31.0995 43.9167 30.9718" stroke="#70750B" stroke-width="3" stroke-linecap="round"/>
<path d="M12.6971 45.6484C9.35664 47.4385 0.598227 51.0938 5.93267 55.6676C8.53851 57.902 11.4408 59.5 15.0895 59.5H35.9105C39.5593 59.5 42.4615 57.902 45.0673 55.6676C50.4019 51.0938 41.6435 47.4385 38.303 45.6484C30.4697 41.4505 20.5303 41.4505 12.6971 45.6484Z" stroke="#70750B" stroke-width="3"/>
<path d="M36.8333 21.25C36.8333 27.5093 31.7591 32.5834 25.5 32.5834C19.2408 32.5834 14.1667 27.5093 14.1667 21.25C14.1667 14.9908 19.2408 9.91669 25.5 9.91669C31.7591 9.91669 36.8333 14.9908 36.8333 21.25Z" stroke="#70750B" stroke-width="3"/>
</svg>
