<svg width="24" height="25" viewBox="0 0 24 25" fill="none" xmlns="http://www.w3.org/2000/svg">
<path d="M12 20.5C9.76667 20.5 7.875 19.725 6.325 18.175C4.775 16.625 4 14.7333 4 12.5C4 10.2667 4.775 8.375 6.325 6.825C7.875 5.275 9.76667 4.5 12 4.5C13.15 4.5 14.25 4.73733 15.3 5.212C16.35 5.68667 17.25 6.366 18 7.25V4.5H20V11.5H13V9.5H17.2C16.6667 8.56667 15.9377 7.83333 15.013 7.3C14.0883 6.76667 13.084 6.5 12 6.5C10.3333 6.5 8.91667 7.08333 7.75 8.25C6.58333 9.41667 6 10.8333 6 12.5C6 14.1667 6.58333 15.5833 7.75 16.75C8.91667 17.9167 10.3333 18.5 12 18.5C13.2833 18.5 14.4417 18.1333 15.475 17.4C16.5083 16.6667 17.2333 15.7 17.65 14.5H19.75C19.2833 16.2667 18.3333 17.7083 16.9 18.825C15.4667 19.9417 13.8333 20.5 12 20.5Z" fill="#8BB151"/>
</svg>
