<svg width="55" height="68" viewBox="0 0 55 68" fill="none" xmlns="http://www.w3.org/2000/svg">
<path d="M55 39.5388C55 55.0413 42.6869 67.6104 27.5 67.6104C12.3131 67.6104 0 55.0413 0 39.5388C0 24.0363 12.3131 11.4673 27.5 11.4673C42.6869 11.4673 55 24.0363 55 39.5388Z" fill="#FAFFF3"/>
<g clip-path="url(#clip0_0_274)">
<path d="M27.3764 34.7923C29.953 34.7923 32.5299 33.0552 32.6993 29.5809C33.071 30.12 33.4168 30.6157 33.5876 30.8597C33.13 32.2331 32.8479 36.0842 33.1438 38.3221C33.357 39.6308 32.5725 46.2344 32.5705 46.25C34.2831 44.1729 35.327 40.8298 35.42 38.5069C36.5994 35.0522 35.9418 30.7434 35.6268 30.051C35.3156 29.0333 33.6497 27.0088 32.2966 25.4989C32.4263 25.5352 32.5317 25.5631 32.6063 25.5824C33.2667 26.3641 34.204 26.5353 34.4403 26.5879C37.5714 27.761 39.2804 28.694 40.6837 30.4735C40.1154 28.5341 37.2251 25.7772 35.517 25.1327C34.9542 24.505 34.0786 24.2061 33.7563 24.1129C33.0018 23.3733 31.9958 22.9538 31.1529 22.8835C33.7781 21.8898 34.6643 20.4756 34.9889 20.1359C36.3039 19.7937 37.3365 18.7203 37.4666 18.1745L44.7528 10.142L35.9266 16.6668C34.8823 17.1429 33.935 18.1248 33.6563 18.4296C33.0855 18.6718 32.4941 18.999 31.9355 19.3471L37.6329 11.8007L37.7306 11.5446C37.9828 8.79403 37.5979 4.26029 37.0351 2L35.42 11.0403C33.2966 13.8104 31.181 16.5716 29.0929 19.3685C28.7495 18.8818 28.0399 18.8455 27.3764 19.3362C26.7128 18.8455 26.0032 18.8818 25.6599 19.3685C23.5717 16.5716 21.4559 13.8104 19.3328 11.0403L17.7177 2C17.1548 4.26029 16.7698 8.79403 17.0222 11.5446L17.1199 11.8007L22.8172 19.3471C22.2587 18.999 21.6673 18.6718 21.0965 18.4296C20.8177 18.1248 19.8705 17.1429 18.8262 16.6668L10 10.142L17.2861 18.1745C17.4163 18.7203 18.4488 19.7937 19.7639 20.1359C20.0884 20.4756 20.9747 21.8898 23.5999 22.8835C22.7567 22.9538 21.7509 23.3733 20.9965 24.1129C20.6742 24.2061 19.7986 24.505 19.2357 25.1327C17.5277 25.7772 14.6374 28.5341 14.0691 30.4735C15.4724 28.694 17.1814 27.761 20.3125 26.5879C20.5488 26.5353 21.4861 26.3641 22.1464 25.5824C22.2211 25.5631 22.3265 25.5352 22.4562 25.4989C21.103 27.0088 19.4371 29.0333 19.126 30.051C18.811 30.7434 18.1533 35.0522 19.3328 38.5069C19.4258 40.8298 20.4696 44.1729 22.1823 46.25C22.1802 46.2344 21.3958 39.6308 21.609 38.3221C21.9049 36.0842 21.6228 32.2331 21.1652 30.8597C21.3359 30.6157 21.6818 30.12 22.0535 29.5809C22.2229 33.0552 24.7997 34.7923 27.3764 34.7923Z" fill="#2B4701"/>
<path d="M30.43 32.529C32.131 30.7481 32.1312 27.8483 30.43 26.0674C28.7545 24.3135 25.9983 24.3135 24.3228 26.0674C22.6216 27.8483 22.6216 30.7481 24.3228 32.529C25.9983 34.2826 28.7545 34.2826 30.43 32.529Z" fill="#E0FFB0"/>
<path d="M36.395 17.9276L36.1126 17.6841C35.4867 18.0159 34.9867 18.488 34.6152 18.8556L34.8701 19.1518C35.3418 18.906 35.9081 18.5048 36.395 17.9276Z" fill="#E0FFB0"/>
<path d="M34.2638 30.0577L34.47 29.9355C33.9327 28.9941 33.0097 27.8376 32.1611 26.8545C32.2169 26.9729 32.2686 27.0933 32.3165 27.216C32.7485 27.9081 33.7309 29.1411 34.2638 30.0577Z" fill="#E0FFB0"/>
<path d="M34.1562 37.8203L34.5592 37.8747C34.9171 35.7126 35.1668 32.0182 34.7316 30.9421L34.5722 31.0367C34.3955 32.5681 34.2145 36.4869 34.1562 37.8203Z" fill="#E0FFB0"/>
<path d="M29.5423 20.8593L36.7504 11.3115C36.8427 10.2275 36.8575 9.09318 36.8325 8.03027L36.3912 11.3056C34.0434 14.4215 31.708 17.5372 29.374 20.6636C29.428 20.7217 29.4847 20.787 29.5423 20.8593Z" fill="#E0FFB0"/>
<path d="M30.1753 22.252C32.1755 21.3265 33.4693 20.2224 34.021 19.6949L33.8131 19.4531C32.3227 20.14 30.7166 21.3918 30.0928 21.9003C30.1263 22.0121 30.1545 22.1291 30.1753 22.252Z" fill="#E0FFB0"/>
<path d="M25.211 20.8593L18.0026 11.3115C17.9103 10.2275 17.8956 9.09318 17.9203 8.03027L18.3619 11.3056C20.7097 14.4215 23.045 17.5372 25.379 20.6636C25.3251 20.7217 25.2684 20.787 25.211 20.8593Z" fill="#E0FFB0"/>
<path d="M20.7319 19.6951L20.9401 19.4534C22.43 20.1401 24.0365 21.3923 24.6604 21.9008C24.6268 22.0123 24.5987 22.1296 24.5781 22.2523C22.5777 21.3266 21.2837 20.2226 20.7319 19.6951Z" fill="#E0FFB0"/>
<path d="M18.3579 17.9276L18.6402 17.6841C19.2662 18.0159 19.7662 18.488 20.1377 18.8556L19.8828 19.1518C19.4111 18.906 18.8448 18.5048 18.3579 17.9276Z" fill="#E0FFB0"/>
<path d="M20.4893 30.0578L20.2832 29.9355C20.8202 28.9942 21.7432 27.8378 22.5918 26.855C22.536 26.9731 22.4841 27.0938 22.4365 27.2162C22.0042 27.9086 21.022 29.1414 20.4893 30.0578Z" fill="#E0FFB0"/>
<path d="M20.3535 38.8598L20.5699 38.8306C20.544 39.5547 20.5871 40.501 20.6583 41.4596C20.4476 40.2692 20.3859 39.3962 20.3535 38.8598Z" fill="#E0FFB0"/>
<path d="M28.9024 23.9725C29.8004 22.0959 28.4196 21.1342 28.4155 21.1312L28.1136 20.9158C28.1136 20.9158 28.1501 21.6047 27.3768 21.6047C26.6035 21.6047 26.64 20.9158 26.64 20.9158L26.3382 21.1312C26.3341 21.1342 24.9533 22.0959 25.8513 23.9725C26.3448 23.8192 26.8609 23.7428 27.3768 23.7428C27.8928 23.7428 28.4089 23.8192 28.9024 23.9725Z" fill="#E0FFB0"/>
<path d="M30.0526 31.0649C29.0342 32.8287 25.7187 32.8287 24.7002 31.0649C24.7002 31.0649 24.7438 31.6293 25.2127 32.2026C25.2127 32.2026 23.4552 31.8051 23.1382 30.2314C23.3046 31.0742 23.6997 31.8767 24.3229 32.5292C25.1606 33.4059 26.2686 33.8445 27.3764 33.8445C28.4842 33.8445 29.5923 33.4059 30.43 32.5292C31.0532 31.8767 31.4482 31.0742 31.6147 30.2314C31.2976 31.8051 29.5401 32.2026 29.5401 32.2026C30.0091 31.6293 30.0526 31.0649 30.0526 31.0649Z" fill="#70750B"/>
<path d="M25.8511 23.9724C26.8675 23.1238 27.8857 23.1238 28.9021 23.9724C27.9159 23.6662 26.8373 23.6662 25.8511 23.9724Z" fill="#70750B"/>
<path d="M29.8085 28.4414C30.5047 27.7101 30.8149 26.7222 30.5205 26.1652C30.4911 26.1324 30.4607 26.0997 30.4301 26.0675C30.3586 25.9927 30.2851 25.921 30.2099 25.8528C29.4032 25.1189 28.39 24.7522 27.3765 24.7522C26.363 24.7522 25.3498 25.1189 24.5431 25.8528C24.4678 25.921 24.3944 25.9927 24.3229 26.0675C24.2923 26.0997 24.2619 26.1324 24.2325 26.1652C23.9381 26.7222 24.2483 27.7101 24.9445 28.4414C24.9445 28.4414 24.8838 27.955 24.9878 27.564C24.9878 27.564 25.4827 29.1102 27.3765 29.1102C29.2703 29.1102 29.7651 27.564 29.7651 27.564C29.8692 27.955 29.8085 28.4414 29.8085 28.4414Z" fill="#F9FCBA"/>
<path d="M32.8828 19.9407C32.8828 19.9407 32.4476 20.8936 31.3291 21.6597C32.6807 20.8934 33.584 20.1131 34.0212 19.6951L33.8132 19.4534C33.5048 19.5956 33.1914 19.7618 32.8828 19.9407Z" fill="#F9FCBA"/>
<path d="M35.5563 18.0335C35.5563 18.0335 35.7536 18.5477 35.2041 18.9602C35.5951 18.7148 36.0187 18.3737 36.3951 17.9276L36.1128 17.6841C35.9148 17.7891 35.7293 17.9081 35.5563 18.0335Z" fill="#F9FCBA"/>
<path d="M33.3866 28.3508C32.995 27.8407 32.5693 27.3276 32.1611 26.8545C32.2169 26.9729 32.2686 27.0933 32.3165 27.216C32.5784 27.6353 33.0422 28.2535 33.4857 28.8792C33.4402 28.6846 33.4084 28.5072 33.3866 28.3508Z" fill="#70750B"/>
<path d="M21.8704 19.9407C21.8704 19.9407 22.3055 20.8936 23.424 21.6597C22.0724 20.8934 21.1692 20.1131 20.7319 19.6951L20.9399 19.4534C21.2483 19.5956 21.5617 19.7618 21.8704 19.9407Z" fill="#F9FCBA"/>
<path d="M19.1965 18.0335C19.1965 18.0335 18.9995 18.5477 19.5489 18.9602C19.158 18.7148 18.7344 18.3737 18.3579 17.9276L18.6402 17.6841C18.8382 17.7891 19.0237 17.9081 19.1965 18.0335Z" fill="#F9FCBA"/>
<path d="M21.3662 28.3508C21.7578 27.8407 22.1833 27.3276 22.5917 26.8545C22.5359 26.9729 22.4842 27.0933 22.4364 27.216C22.1744 27.6353 21.7107 28.2535 21.2671 28.8792C21.3127 28.6846 21.3444 28.5072 21.3662 28.3508Z" fill="#70750B"/>
<path d="M27.3764 22.2234C29.45 22.2234 28.6148 21.3081 28.6148 21.3081C28.501 21.1911 28.4161 21.1319 28.415 21.1312L28.1132 20.9158C28.1132 20.9158 28.1497 21.6047 27.3764 21.6047C26.6031 21.6047 26.6396 20.9158 26.6396 20.9158L26.3377 21.1312C26.3366 21.1319 26.2518 21.1911 26.1379 21.3081C26.1379 21.3081 25.3027 22.2234 27.3764 22.2234Z" fill="#F9FCBA"/>
<path d="M18.003 11.3115L18.3622 11.3056L17.9209 8.03027C17.896 9.09318 17.9109 10.2275 18.003 11.3115Z" fill="#F9FCBA"/>
<path d="M36.8324 8.03027L36.3911 11.3056L36.7503 11.3115C36.8424 10.2275 36.8574 9.09318 36.8324 8.03027Z" fill="#F9FCBA"/>
<path d="M30.8609 21.9144C30.7473 21.6241 30.94 21.2397 30.94 21.2397C30.5831 21.5064 30.2892 21.7402 30.0928 21.9003C30.1263 22.0122 30.1545 22.1292 30.1751 22.2521C30.4139 22.1416 30.6425 22.0287 30.8609 21.9144Z" fill="#70750B"/>
<path d="M23.8921 21.9144C24.0055 21.6241 23.813 21.2397 23.813 21.2397C24.1699 21.5064 24.4638 21.7402 24.6602 21.9003C24.6267 22.0122 24.5985 22.1292 24.5777 22.2521C24.3391 22.1416 24.1105 22.0287 23.8921 21.9144Z" fill="#70750B"/>
<path d="M34.292 35.0123C34.8596 34.5592 34.9462 33.9084 34.9462 33.9084C34.9932 32.6176 34.944 31.4676 34.7315 30.9421L34.5721 31.0367C34.4725 31.9003 34.3716 33.5224 34.292 35.0123Z" fill="#F9FCBA"/>
<path d="M20.5974 37.8201L20.1944 37.8745C19.8366 35.7124 19.5869 32.018 20.0221 30.9419L20.1815 31.0365C20.3582 32.5679 20.5391 36.4866 20.5974 37.8201Z" fill="#E0FFB0"/>
<path d="M20.4616 35.0121C19.894 34.559 19.8073 33.9081 19.8073 33.9081C19.7604 32.6173 19.8096 31.4673 20.0221 30.9419L20.1815 31.0365C20.2811 31.9 20.382 33.5222 20.4616 35.0121Z" fill="#F9FCBA"/>
<path d="M34.4 38.8601L34.1837 38.8308C34.2095 39.5549 34.1664 40.5013 34.0952 41.4598C34.3059 40.2695 34.3676 39.3964 34.4 38.8601Z" fill="#E0FFB0"/>
</g>
<defs>
<clipPath id="clip0_0_274">
<rect width="35" height="46" fill="white" transform="translate(10)"/>
</clipPath>
</defs>
</svg>
