<svg width="62" height="49" viewBox="0 0 62 49" fill="none" xmlns="http://www.w3.org/2000/svg">
<path d="M59.7288 18.9104L47.8043 23.6858L45.2465 22.5016L34.6635 17.6068L33.9897 17.2964L34.3356 17.1579L45.9142 12.521L59.7288 18.9104Z" fill="#EDFFD0" stroke="black" stroke-width="0.181373" stroke-linecap="round" stroke-linejoin="round"/>
<path d="M47.8047 23.6858V36.3836L43.2018 34.2537V28.7525L39.5648 30.4143L28.0041 35.6911L19.162 23.471L18.7983 22.9695L16.5446 24.001L4.98384 29.2778L1.75824 24.8223L18.7983 16.9382L19.1978 17.4921L22.4413 21.9763L28.0041 29.6598L36.3214 25.935L39.6185 24.4547L39.9762 24.297L39.2667 23.9676L33.9901 21.5321V17.2964L34.6639 17.6068L45.2469 22.5015L47.8047 23.6858Z" fill="#CBF785" stroke="#759148" stroke-width="0.181373" stroke-linecap="round" stroke-linejoin="round"/>
<path d="M19.1627 23.4709L16.909 24.5024L4.9845 29.2778L16.5453 24.001L18.799 22.9695L19.1627 23.4709Z" fill="#EDFFD0" stroke="black" stroke-width="0.181373" stroke-linecap="round" stroke-linejoin="round"/>
<path d="M43.2022 28.7526V29.4211L39.9289 30.9158L28.0045 35.6912L39.5652 30.4144L43.2022 28.7526Z" fill="#EDFFD0" stroke="black" stroke-width="0.181373" stroke-linecap="round" stroke-linejoin="round"/>
<path d="M59.7295 18.9104V31.6081L47.8051 36.3835V23.6858L59.7295 18.9104Z" fill="#EDFFD0" stroke="black" stroke-width="0.181373" stroke-linecap="round" stroke-linejoin="round"/>
<path d="M39.6189 24.4547L36.3217 25.935L28.0044 29.6598L22.4416 21.9763L19.1982 17.4921L18.7987 16.9382L30.7232 12.1628L34.3363 17.1579L33.9904 17.2964V21.5321L39.267 23.9676L39.6189 24.4547Z" fill="#EDFFD0" stroke="black" stroke-width="0.181373" stroke-linecap="round" stroke-linejoin="round"/>
</svg>
