<svg width="55" height="59" viewBox="0 0 55 59" fill="none" xmlns="http://www.w3.org/2000/svg">
<g clip-path="url(#clip0_19_1531)">
<path d="M26.6824 43.4344C30.1558 43.4344 33.6295 41.1604 33.8579 36.6123C34.359 37.318 34.8252 37.967 35.0554 38.2864C34.4384 40.0842 34.0581 45.1257 34.4571 48.0552C34.7445 49.7684 33.687 58.4129 33.6843 58.4334C35.993 55.7144 37.4001 51.3379 37.5255 48.2971C39.1155 43.7746 38.2289 38.1341 37.8043 37.2278C37.3849 35.8954 35.1391 33.2453 33.315 31.2687C33.4898 31.3162 33.632 31.3527 33.7326 31.378C34.6228 32.4013 35.8863 32.6254 36.2048 32.6943C40.4257 34.23 42.7295 35.4513 44.6212 37.7808C43.8551 35.242 39.9589 31.633 37.6563 30.7893C36.8976 29.9675 35.7172 29.5763 35.2828 29.4542C34.2657 28.4862 32.9096 27.9369 31.7733 27.8449C35.3122 26.544 36.5069 24.6928 36.9443 24.248C38.7171 23.8001 40.109 22.395 40.2845 21.6804L50.1065 11.1653L38.2084 19.7068C36.8006 20.33 35.5237 21.6154 35.148 22.0144C34.3785 22.3315 33.5812 22.7598 32.8283 23.2155L40.5086 13.3366L40.6403 13.0015C40.9803 9.40074 40.4615 3.46573 39.7027 0.506836L37.5255 12.3412C34.6631 15.9675 31.8112 19.5822 28.9963 23.2434C28.5334 22.6064 27.5769 22.5589 26.6824 23.2013C25.7879 22.5589 24.8313 22.6064 24.3685 23.2434C21.5535 19.5822 18.7013 15.9675 15.8392 12.3412L13.662 0.506836C12.9032 3.46573 12.3841 9.40074 12.7244 13.0015L12.8562 13.3366L20.5364 23.2155C19.7835 22.7598 18.9862 22.3315 18.2167 22.0144C17.841 21.6154 16.5641 20.33 15.1563 19.7068L3.25818 11.1653L13.0802 21.6804C13.2557 22.395 14.6476 23.8001 16.4204 24.248C16.8579 24.6928 18.0526 26.544 21.5914 27.8449C20.4548 27.9369 19.099 28.4862 18.0819 29.4542C17.6475 29.5763 16.4672 29.9675 15.7084 30.7893C13.4058 31.633 9.50958 35.242 8.74348 37.7808C10.6352 35.4513 12.939 34.23 17.1599 32.6943C17.4784 32.6254 18.7419 32.4013 19.6321 31.378C19.7327 31.3527 19.8749 31.3162 20.0497 31.2687C18.2256 33.2453 15.9799 35.8954 15.5604 37.2278C15.1358 38.1341 14.2493 43.7746 15.8392 48.2971C15.9646 51.3379 17.3717 55.7144 19.6804 58.4334C19.6777 58.4129 18.6203 49.7684 18.9076 48.0552C19.3066 45.1257 18.9263 40.0842 18.3094 38.2864C18.5395 37.967 19.0058 37.318 19.5068 36.6123C19.7352 41.1604 23.2089 43.4344 26.6824 43.4344Z" fill="#2B4701"/>
<path d="M30.7987 40.4714C33.0918 38.1401 33.0921 34.3441 30.7987 32.0128C28.5401 29.7168 24.8246 29.7168 22.566 32.0128C20.2726 34.3441 20.2726 38.1401 22.566 40.4714C24.8246 42.7671 28.5401 42.7671 30.7987 40.4714Z" fill="#E0FFB0"/>
<path d="M38.8405 21.3574L38.4599 21.0386C37.6162 21.4729 36.9421 22.091 36.4413 22.5722L36.785 22.9599C37.4208 22.6381 38.1842 22.1129 38.8405 21.3574Z" fill="#E0FFB0"/>
<path d="M35.9673 37.2369L36.2452 37.0768C35.521 35.8445 34.2768 34.3305 33.1328 33.0436C33.208 33.1985 33.2777 33.3562 33.3422 33.5168C33.9246 34.4228 35.2489 36.0369 35.9673 37.2369Z" fill="#E0FFB0"/>
<path d="M35.822 47.3981L36.3653 47.4693C36.8477 44.639 37.1843 39.8027 36.5976 38.394L36.3827 38.5178C36.1445 40.5226 35.9006 45.6525 35.822 47.3981Z" fill="#E0FFB0"/>
<path d="M29.6021 25.1951L39.319 12.6963C39.4434 11.2772 39.4633 9.7923 39.4296 8.40088L38.8347 12.6886C35.6697 16.7675 32.5216 20.8462 29.3752 24.9389C29.448 25.0149 29.5244 25.1004 29.6021 25.1951Z" fill="#E0FFB0"/>
<path d="M30.4558 27.0186C33.1522 25.807 34.8962 24.3616 35.64 23.6711L35.3597 23.3546C33.3506 24.2538 31.1855 25.8925 30.3445 26.5581C30.3898 26.7045 30.4277 26.8577 30.4558 27.0186Z" fill="#E0FFB0"/>
<path d="M23.7631 25.1951L14.0459 12.6963C13.9215 11.2772 13.9016 9.7923 13.9349 8.40088L14.5302 12.6886C17.6951 16.7675 20.8433 20.8462 23.9896 24.9389C23.9169 25.0149 23.8405 25.1004 23.7631 25.1951Z" fill="#E0FFB0"/>
<path d="M17.7251 23.6711L18.0057 23.3546C20.0142 24.2535 22.1798 25.8928 23.0208 26.5584C22.9756 26.7045 22.9377 26.858 22.9099 27.0186C20.2132 25.8068 18.4689 24.3616 17.7251 23.6711Z" fill="#E0FFB0"/>
<path d="M14.5246 21.3574L14.9052 21.0386C15.749 21.4729 16.4231 22.091 16.9238 22.5722L16.5802 22.9599C15.9443 22.6381 15.181 22.1129 14.5246 21.3574Z" fill="#E0FFB0"/>
<path d="M17.3979 37.2365L17.12 37.0765C17.8439 35.8442 19.0881 34.3305 20.2321 33.0438C20.1569 33.1985 20.0869 33.3564 20.0227 33.5167C19.44 34.4231 18.116 36.0369 17.3979 37.2365Z" fill="#E0FFB0"/>
<path d="M17.2148 48.7592L17.5065 48.7209C17.4716 49.6689 17.5297 50.9077 17.6257 52.1626C17.3417 50.6043 17.2586 49.4613 17.2148 48.7592Z" fill="#E0FFB0"/>
<path d="M28.7392 29.2705C29.9498 26.814 28.0884 25.5549 28.0829 25.5511L27.676 25.269C27.676 25.269 27.7252 26.1709 26.6827 26.1709C25.6403 26.1709 25.6895 25.269 25.6895 25.269L25.2826 25.5511C25.2771 25.5549 23.4157 26.814 24.6263 29.2705C25.2915 29.0699 25.9873 28.9698 26.6827 28.9698C27.3782 28.9698 28.074 29.0699 28.7392 29.2705Z" fill="#E0FFB0"/>
<path d="M30.2903 38.5546C28.9174 40.8637 24.4479 40.8637 23.075 38.5546C23.075 38.5546 23.1337 39.2935 23.7659 40.044C23.7659 40.044 21.3967 39.5236 20.9693 37.4636C21.1937 38.5668 21.7262 39.6174 22.5663 40.4715C23.6956 41.6192 25.1893 42.1933 26.6827 42.1933C28.176 42.1933 29.6697 41.6192 30.799 40.4715C31.6391 39.6174 32.1716 38.5668 32.396 37.4636C31.9686 39.5236 29.5994 40.044 29.5994 40.044C30.2316 39.2935 30.2903 38.5546 30.2903 38.5546Z" fill="#70750B"/>
<path d="M24.6262 29.2705C25.9964 28.1597 27.369 28.1597 28.7392 29.2705C27.4097 28.8698 25.9557 28.8698 24.6262 29.2705Z" fill="#70750B"/>
<path d="M29.9611 35.1206C30.8996 34.1632 31.3178 32.87 30.921 32.1409C30.8813 32.0979 30.8403 32.0551 30.799 32.013C30.7027 31.915 30.6037 31.8212 30.5022 31.7318C29.4148 30.7712 28.0489 30.2911 26.6827 30.2911C25.3165 30.2911 23.9506 30.7712 22.8632 31.7318C22.7617 31.8212 22.6627 31.915 22.5664 32.013C22.5251 32.0551 22.4841 32.0979 22.4444 32.1409C22.0476 32.87 22.4658 34.1632 23.4043 35.1206C23.4043 35.1206 23.3224 34.4838 23.4627 33.972C23.4627 33.972 24.1297 35.9961 26.6827 35.9961C29.2357 35.9961 29.9027 33.972 29.9027 33.972C30.043 34.4838 29.9611 35.1206 29.9611 35.1206Z" fill="#F9FCBA"/>
<path d="M34.105 23.9926C34.105 23.9926 33.5184 25.24 32.0107 26.2429C33.8327 25.2397 35.0503 24.2182 35.6397 23.6711L35.3594 23.3546C34.9436 23.5408 34.5211 23.7584 34.105 23.9926Z" fill="#F9FCBA"/>
<path d="M37.7094 21.4961C37.7094 21.4961 37.9753 22.1691 37.2346 22.7091C37.7617 22.3878 38.3327 21.9414 38.8402 21.3574L38.4596 21.0386C38.1927 21.176 37.9426 21.3319 37.7094 21.4961Z" fill="#F9FCBA"/>
<path d="M34.7849 35.0023C34.2569 34.3347 33.6831 33.6628 33.1328 33.0436C33.208 33.1985 33.2777 33.3562 33.3422 33.5168C33.6953 34.0657 34.3205 34.875 34.9184 35.694C34.857 35.4393 34.8142 35.2072 34.7849 35.0023Z" fill="#70750B"/>
<path d="M19.2597 23.9926C19.2597 23.9926 19.8464 25.24 21.3541 26.2429C19.5321 25.2397 18.3145 24.2182 17.7251 23.6711L18.0054 23.3546C18.4212 23.5408 18.8436 23.7584 19.2597 23.9926Z" fill="#F9FCBA"/>
<path d="M15.6551 21.4961C15.6551 21.4961 15.3895 22.1691 16.1302 22.7091C15.6032 22.3878 15.0321 21.9414 14.5246 21.3574L14.9052 21.0386C15.1721 21.176 15.4222 21.3319 15.6551 21.4961Z" fill="#F9FCBA"/>
<path d="M18.5802 35.0023C19.1082 34.3347 19.6817 33.6628 20.2323 33.0436C20.1571 33.1985 20.0874 33.3562 20.0229 33.5168C19.6698 34.0657 19.0446 34.875 18.4467 35.694C18.5081 35.4393 18.5509 35.2072 18.5802 35.0023Z" fill="#70750B"/>
<path d="M26.6826 26.9808C29.478 26.9808 28.3521 25.7826 28.3521 25.7826C28.1986 25.6294 28.0843 25.552 28.0828 25.5511L27.6759 25.269C27.6759 25.269 27.7251 26.1709 26.6826 26.1709C25.6402 26.1709 25.6894 25.269 25.6894 25.269L25.2825 25.5511C25.281 25.552 25.1666 25.6294 25.0132 25.7826C25.0132 25.7826 23.8873 26.9808 26.6826 26.9808Z" fill="#F9FCBA"/>
<path d="M14.0463 12.6963L14.5305 12.6886L13.9356 8.40088C13.902 9.7923 13.9222 11.2772 14.0463 12.6963Z" fill="#F9FCBA"/>
<path d="M39.4297 8.40088L38.8348 12.6886L39.3191 12.6963C39.4432 11.2772 39.4634 9.7923 39.4297 8.40088Z" fill="#F9FCBA"/>
<path d="M31.38 26.5764C31.2268 26.1964 31.4867 25.6932 31.4867 25.6932C31.0055 26.0424 30.6093 26.3484 30.3445 26.558C30.3898 26.7044 30.4277 26.8576 30.4555 27.0185C30.7774 26.8739 31.0856 26.726 31.38 26.5764Z" fill="#70750B"/>
<path d="M21.9857 26.5764C22.1386 26.1964 21.879 25.6932 21.879 25.6932C22.3602 26.0424 22.7564 26.3484 23.0211 26.558C22.9759 26.7044 22.938 26.8576 22.9099 27.0185C22.5883 26.8739 22.2801 26.726 21.9857 26.5764Z" fill="#70750B"/>
<path d="M36.0049 43.7222C36.7701 43.1291 36.8869 42.2771 36.8869 42.2771C36.9502 40.5873 36.8838 39.0819 36.5974 38.394L36.3825 38.5178C36.2483 39.6483 36.1122 41.7718 36.0049 43.7222Z" fill="#F9FCBA"/>
<path d="M17.5435 47.3981L17.0002 47.4693C16.5178 44.639 16.1812 39.8027 16.7679 38.394L16.9828 38.5178C17.221 40.5226 17.4649 45.6525 17.5435 47.3981Z" fill="#E0FFB0"/>
<path d="M17.3604 43.7222C16.5952 43.1291 16.4784 42.2771 16.4784 42.2771C16.4151 40.5873 16.4814 39.0819 16.7679 38.394L16.9828 38.5178C17.117 39.6483 17.2531 41.7718 17.3604 43.7222Z" fill="#F9FCBA"/>
<path d="M36.1501 48.7592L35.8585 48.7209C35.8933 49.6689 35.8352 50.9077 35.7393 52.1626C36.0233 50.6043 36.1064 49.4613 36.1501 48.7592Z" fill="#E0FFB0"/>
</g>
<defs>
<clipPath id="clip0_19_1531">
<rect width="54.2077" height="57.9266" fill="white" transform="translate(0.334961 0.506836)"/>
</clipPath>
</defs>
</svg>
