<svg width="58" height="48" viewBox="0 0 58 48" fill="none" xmlns="http://www.w3.org/2000/svg">
<path d="M35.2015 37.8483C35.2015 39.6296 34.8153 40.9369 34.0383 41.7624C33.7632 42.0507 33.4446 42.2837 33.073 42.4575L32.7642 42.5839C31.1377 43.1605 29.1252 43.046 26.7265 42.2403V46.8178L22.0836 44.6219V39.9337C20.0324 38.5316 18.2611 36.857 16.7698 34.9177C15.2785 32.9785 14.1878 30.7193 13.4929 28.1363L17.7882 28.5313C18.3674 30.5495 19.2265 32.2834 20.3703 33.7289C21.5093 35.1784 23.0102 36.3396 24.8683 37.2164C26.4562 37.9668 27.7979 38.267 28.9032 38.1169C30.0084 37.9629 30.5585 37.1808 30.5585 35.7629C30.5585 35.5378 30.5441 35.3127 30.52 35.0915C30.3945 34.0646 29.9842 33.0772 29.2796 32.1333C28.5315 31.1222 26.9002 29.6174 24.3954 27.615C24.0672 27.3543 23.7197 27.0818 23.3578 26.8013C23.1985 26.6789 23.044 26.5604 22.8944 26.4419C22.267 25.9522 21.683 25.4743 21.1376 25.0082C18.9947 23.1796 17.4504 21.5287 16.5093 20.0476C15.2689 18.1004 14.6511 16.1454 14.6511 14.1824C14.6511 11.8206 15.462 10.3711 17.0884 9.83C18.7149 9.28891 20.3799 9.33236 22.0836 9.95244V5.37488L24.8201 6.66639L25.2544 6.87177L26.7265 7.56689V12.1484C27.6628 12.7329 28.5219 13.3649 29.3038 14.0521C30.1291 14.7788 30.8674 15.5608 31.5141 16.4021C31.8616 16.8524 32.185 17.3066 32.4746 17.7647C33.2564 18.9733 33.85 20.2134 34.2748 21.4931L31.0508 21.2759L29.9794 21.2048C29.8153 20.7229 29.632 20.2687 29.4196 19.8343C29.0287 19.0246 28.5604 18.2979 28.0054 17.6581C27.489 17.0656 26.8616 16.5245 26.1232 16.0348C25.6406 15.7109 25.1048 15.4147 24.5208 15.1382C22.8172 14.3365 21.5189 14.0758 20.6309 14.3641C19.7428 14.6524 19.2941 15.3239 19.2941 16.3784C19.2941 17.5751 19.878 18.7955 21.0363 20.0357C22.0884 21.1574 23.8404 22.6385 26.2825 24.475C26.4466 24.6014 26.6154 24.7278 26.7844 24.8503C26.8809 24.9253 26.9775 24.9964 27.074 25.0675C27.3105 25.2452 27.5469 25.4229 27.7738 25.6046C30.1 27.4372 31.8858 29.3646 33.1406 31.3947C33.4736 31.9397 33.7728 32.4808 34.0238 33.018C34.8105 34.6729 35.2015 36.2803 35.2015 37.8483Z" fill="#CBF785" stroke="#759148" stroke-width="0.147059" stroke-linecap="round" stroke-linejoin="round"/>
<path d="M36.3789 3.61731L26.7264 7.56689L25.2543 6.87176L24.82 6.66639L22.0834 5.37487L31.736 1.42529L36.3789 3.61731Z" fill="#EDFFD0" stroke="#759148" stroke-width="0.147059" stroke-linecap="round" stroke-linejoin="round"/>
<path d="M36.3793 3.61731V8.1988L31.2248 10.3079L29.3137 11.0899L26.7267 12.1484V7.56687L36.3793 3.61731Z" fill="#EDFFD0" stroke="#759148" stroke-width="0.147059" stroke-linecap="round" stroke-linejoin="round"/>
<path d="M44.854 33.8988C44.854 36.4779 44.0431 38.0577 42.4167 38.6344L36.379 41.1068L34.381 41.9243L33.0729 42.4575C33.4446 42.2837 33.7631 42.0507 34.0382 41.7624C34.8152 40.9369 35.2014 39.6297 35.2014 37.8484C35.2014 36.2804 34.8104 34.6729 34.0237 33.0181C33.7727 32.4809 33.4736 31.9398 33.1406 31.3948C31.8857 29.3647 30.1 27.4373 27.7737 25.6047C27.5469 25.423 27.3104 25.2453 27.0739 25.0676C26.9774 24.9965 26.8808 24.9254 26.7843 24.8503C26.6153 24.7279 26.4466 24.6015 26.2825 24.4751C23.8404 22.6386 22.0883 21.1575 21.0362 20.0358C19.8779 18.7956 19.294 17.5752 19.294 16.3785C19.294 15.3239 19.7427 14.6525 20.6307 14.3642C21.5188 14.0759 22.8171 14.3365 24.5208 15.1383C25.1048 15.4148 25.6405 15.711 26.1231 16.0349C26.8616 16.5246 27.4889 17.0657 28.0054 17.6581C28.5604 18.298 29.0286 19.0247 29.4195 19.8344C29.6319 20.2688 29.8153 20.723 29.9793 21.2049L31.0507 21.276L34.2747 21.4932L36.1812 20.7112C36.3597 20.8455 36.5382 20.9797 36.7264 21.118C39.3954 23.1086 41.4176 25.2176 42.7931 27.4452C44.1686 29.6767 44.854 31.8253 44.854 33.8988Z" fill="#EDFFD0" stroke="#759148" stroke-width="0.147059" stroke-linecap="round" stroke-linejoin="round"/>
<path d="M36.3793 41.1067V42.8682L26.7267 46.8178V42.2402C29.1254 43.0459 31.138 43.1605 32.7644 42.5838L33.0733 42.4574L34.3813 41.9243L36.3793 41.1067Z" fill="#EDFFD0" stroke="#759148" stroke-width="0.147059" stroke-linecap="round" stroke-linejoin="round"/>
<path d="M43.9271 17.5436L36.1811 20.7111L34.2746 21.4931C33.8499 20.2135 33.2562 18.9733 32.4744 17.7647C32.1848 17.3066 31.8614 16.8524 31.5139 16.4021C30.8672 15.5609 30.1289 14.7789 29.3036 14.0521C28.5217 13.3649 27.6626 12.733 26.7263 12.1484L29.3133 11.0899L31.2245 10.3079L36.3789 8.19885C38.3142 9.40347 39.9117 10.8214 41.1665 12.4526C42.4262 14.0798 43.3432 15.7781 43.9271 17.5436Z" fill="#EDFFD0" stroke="#759148" stroke-width="0.147059" stroke-linecap="round" stroke-linejoin="round"/>
<path d="M22.0834 7.78809L17.0883 9.83002L22.0834 7.78809Z" fill="white"/>
<path d="M22.0834 7.78809L17.0883 9.83002" stroke="#759148" stroke-width="0.147059" stroke-linecap="round" stroke-linejoin="round"/>
<path d="M30.558 35.763C30.558 37.1809 30.0079 37.9629 28.9026 38.117C27.7974 38.2671 26.4557 37.9669 24.8678 37.2165C23.0097 36.3397 21.5088 35.1785 20.3698 33.729C19.226 32.2834 18.3669 30.5496 17.7877 28.5313L22.894 26.442C23.0436 26.5605 23.198 26.679 23.3573 26.8014C23.7192 27.0818 24.0667 27.3544 24.3949 27.615C26.8997 29.6175 28.531 31.1223 29.2791 32.1334C29.9837 33.0773 30.394 34.0647 30.5195 35.0916C30.5436 35.3128 30.558 35.5379 30.558 35.763Z" fill="#EDFFD0" stroke="#759148" stroke-width="0.147059" stroke-linecap="round" stroke-linejoin="round"/>
<path d="M22.8944 26.4419L17.7882 28.5312L13.4929 28.1362L21.1376 25.0082C21.683 25.4742 22.267 25.9521 22.8944 26.4419Z" fill="#EDFFD0" stroke="#759148" stroke-width="0.147059" stroke-linecap="round" stroke-linejoin="round"/>
</svg>
