<svg width="68" height="68" viewBox="0 0 68 68" fill="none" xmlns="http://www.w3.org/2000/svg">
<path d="M18.6365 43.8645C14.6279 46.2513 4.11786 51.125 10.5192 57.2237C13.6462 60.2027 17.1289 62.3333 21.5075 62.3333H46.4925C50.8711 62.3333 54.3538 60.2027 57.4807 57.2237C63.882 51.125 53.3721 46.2513 49.3635 43.8645C39.9636 38.2673 28.0364 38.2673 18.6365 43.8645Z" stroke="#70750B" stroke-width="3" stroke-linecap="round" stroke-linejoin="round"/>
<path d="M46.75 18.4167C46.75 25.4583 41.0417 31.1667 34 31.1667C26.9584 31.1667 21.25 25.4583 21.25 18.4167C21.25 11.375 26.9584 5.66666 34 5.66666C41.0417 5.66666 46.75 11.375 46.75 18.4167Z" stroke="#70750B" stroke-width="3"/>
</svg>
