<svg width="99" height="22" viewBox="0 0 99 22" fill="none" xmlns="http://www.w3.org/2000/svg">
<path d="M28.1107 0.621094L21.8016 21.5644H19.2609L14.0553 4.56014L8.81886 21.5644H6.30667L0 0.621094H2.5098L7.62473 17.7811L12.8612 0.621094H15.2185L20.455 17.7811L25.5675 0.621094H28.1083H28.1107Z" fill="#EBFFCB"/>
<path d="M42.2566 13.4674V14.3433H29.3048C29.4073 16.0099 29.9888 17.3505 31.0495 18.3602C32.1101 19.3723 33.3257 19.876 34.6938 19.876C37.1631 19.876 38.8792 18.7714 39.8373 16.5622L41.9181 17.0634C41.327 18.6473 40.4022 19.8614 39.1485 20.7056C37.8924 21.5499 36.4075 21.9708 34.6938 21.9708C32.6106 21.9708 30.8159 21.2214 29.3048 19.7203C27.7936 18.2191 27.0381 16.2824 27.0381 13.9054C27.0381 11.5283 27.8032 9.55515 29.3358 8.04425C30.8659 6.53335 32.7036 5.77911 34.8487 5.77911C36.9939 5.77911 38.6408 6.49199 40.0399 7.92016C41.439 9.34834 42.1779 11.1974 42.259 13.4674H42.2566ZM34.8463 7.8715C33.5402 7.8715 32.3604 8.29241 31.3093 9.13667C30.2582 9.98092 29.6194 11.122 29.3953 12.5599H39.8993C39.6943 11.0806 39.1223 9.92983 38.1832 9.10504C37.2441 8.28268 36.131 7.8715 34.8463 7.8715Z" fill="#EBFFCB"/>
<path d="M50.2175 5.77904C52.1362 5.77904 53.6568 6.28511 54.7794 7.29481C55.902 8.30694 56.4645 9.72782 56.4645 11.5623V21.5644H54.1979V19.219C52.8512 21.0535 50.9611 21.9707 48.5323 21.9707C46.8782 21.9707 45.5506 21.5328 44.5519 20.6569C43.5509 19.781 43.0527 18.6472 43.0527 17.2507C43.0527 15.8541 43.5842 14.6522 44.6449 13.7666C45.7055 12.881 47.1976 12.4382 49.1163 12.4382H54.2002V11.718C54.2002 10.5307 53.8523 9.59157 53.1587 8.90546C52.4651 8.21692 51.526 7.87387 50.3414 7.87387C49.1568 7.87387 48.2487 8.15123 47.4931 8.70109C46.7376 9.25338 46.2776 10.01 46.1155 10.9662L43.8798 10.465C44.1253 9.06847 44.8284 7.93956 45.9916 7.07341C47.1547 6.20969 48.5633 5.77661 50.2175 5.77661V5.77904ZM48.8708 20.0024C50.3605 20.0024 51.6213 19.5329 52.6534 18.5961C53.683 17.6594 54.2002 16.5013 54.2002 15.1267V14.314H49.0877C47.884 14.314 46.9497 14.5792 46.2847 15.1121C45.6221 15.6425 45.2908 16.3456 45.2908 17.2215C45.2908 18.0341 45.6174 18.7008 46.2704 19.2214C46.9235 19.7421 47.7911 20.0024 48.8732 20.0024H48.8708Z" fill="#EBFFCB"/>
<path d="M72.5717 6.15369L65.8956 21.5644H63.3548L56.6787 6.15369H59.2195L64.6395 18.7494L70.0286 6.15369H72.5693H72.5717Z" fill="#EBFFCB"/>
<path d="M87.3308 13.4674V14.3433H74.379C74.4815 16.0099 75.0631 17.3505 76.1237 18.3602C77.1843 19.3723 78.3999 19.876 79.768 19.876C82.2373 19.876 83.9534 18.7714 84.9116 16.5622L86.9947 17.0634C86.4036 18.6473 85.4788 19.8614 84.2227 20.7056C82.9666 21.5499 81.4817 21.9708 79.768 21.9708C77.6849 21.9708 75.8901 21.2214 74.379 19.7203C72.8679 18.2191 72.1123 16.2824 72.1123 13.9054C72.1123 11.5283 72.8774 9.55515 74.41 8.04425C75.9402 6.53335 77.7778 5.77911 79.9206 5.77911C82.0633 5.77911 83.7127 6.49199 85.1118 7.92016C86.5109 9.34834 87.2498 11.1974 87.3308 13.4674ZM79.9206 7.8715C78.6144 7.8715 77.4346 8.29241 76.3835 9.13667C75.3324 9.98092 74.6936 11.122 74.4696 12.5599H84.9735C84.7686 11.0806 84.1965 9.92983 83.2574 9.10504C82.3183 8.28268 81.2053 7.8715 79.9206 7.8715Z" fill="#EBFFCB"/>
<path d="M97.9276 5.99817C98.3567 5.99817 98.7142 6.03953 99.0002 6.12225L98.8167 8.40442C98.6332 8.38495 98.3376 8.37279 97.9276 8.37279C95.9875 8.37279 94.4931 9.03943 93.442 10.3727C92.3908 11.706 91.8641 13.4578 91.8641 15.6232V21.5621H89.5068V6.15388H91.8641V9.93721C93.2727 7.31199 95.2939 5.99817 97.9276 5.99817Z" fill="#EBFFCB"/>
</svg>
