<svg width="99" height="21" viewBox="0 0 99 21" fill="none" xmlns="http://www.w3.org/2000/svg">
<path d="M28.1107 0L21.8016 20.517H19.2609L14.0553 3.85885L8.81886 20.517H6.30667L0 0H2.5098L7.62473 16.8106L12.8612 0H15.2185L20.455 16.8106L25.5675 0H28.1083H28.1107Z" fill="#EBFFCB"/>
<path d="M42.2567 12.5848V13.4428H29.3049C29.4074 15.0755 29.989 16.3888 31.0496 17.3779C32.1102 18.3695 33.3258 18.8628 34.6939 18.8628C37.1632 18.8628 38.8793 17.7807 39.8375 15.6165L41.9182 16.1075C41.3271 17.6592 40.4024 18.8485 39.1486 19.6756C37.8926 20.5027 36.4076 20.915 34.6939 20.915C32.6108 20.915 30.816 20.1809 29.3049 18.7103C27.7938 17.2397 27.0382 15.3424 27.0382 13.0138C27.0382 10.6851 27.8033 8.75213 29.3359 7.27199C30.8661 5.79186 32.7037 5.05298 34.8489 5.05298C36.994 5.05298 38.641 5.75134 40.0401 7.15044C41.4392 8.54954 42.178 10.361 42.2591 12.5848H42.2567ZM34.8465 7.10277C33.5403 7.10277 32.3605 7.51511 31.3094 8.34217C30.2583 9.16924 29.6195 10.2871 29.3955 11.6957H39.8994C39.6945 10.2466 39.1224 9.11919 38.1833 8.31119C37.2442 7.50557 36.1312 7.10277 34.8465 7.10277Z" fill="#EBFFCB"/>
<path d="M50.2173 5.05292C52.136 5.05292 53.6567 5.54868 54.7793 6.53783C55.9019 7.52935 56.4644 8.9213 56.4644 10.7184V20.5169H54.1977V18.2192C52.8511 20.0164 50.961 20.9149 48.5322 20.9149C46.8781 20.9149 45.5505 20.4859 44.5518 19.6279C43.5508 18.7698 43.0526 17.6591 43.0526 16.291C43.0526 14.9229 43.5841 13.7455 44.6448 12.8779C45.7054 12.0103 47.1975 11.5765 49.1162 11.5765H54.2001V10.871C54.2001 9.70785 53.8521 8.78783 53.1585 8.11569C52.465 7.44116 51.5259 7.10509 50.3413 7.10509C49.1567 7.10509 48.2486 7.37681 47.493 7.91547C46.7375 8.45652 46.2775 9.19778 46.1154 10.1345L43.8797 9.64349C44.1252 8.27538 44.8283 7.16945 45.9914 6.32093C47.1546 5.4748 48.5632 5.05054 50.2173 5.05054V5.05292ZM48.8707 18.9867C50.3603 18.9867 51.6212 18.5267 52.6532 17.6091C53.6829 16.6914 54.2001 15.5569 54.2001 14.2102V13.4141H49.0876C47.8839 13.4141 46.9496 13.6739 46.2846 14.1959C45.622 14.7155 45.2907 15.4044 45.2907 16.2624C45.2907 17.0585 45.6172 17.7116 46.2703 18.2216C46.9234 18.7317 47.791 18.9867 48.8731 18.9867H48.8707Z" fill="#EBFFCB"/>
<path d="M72.5719 5.42004L65.8958 20.517H63.355L56.6789 5.42004H59.2197L64.6397 17.7593L70.0287 5.42004H72.5695H72.5719Z" fill="#EBFFCB"/>
<path d="M87.3306 12.5848V13.4428H74.3788C74.4813 15.0755 75.0629 16.3888 76.1235 17.3779C77.1842 18.3695 78.3997 18.8628 79.7678 18.8628C82.2371 18.8628 83.9532 17.7807 84.9114 15.6165L86.9945 16.1075C86.4034 17.6592 85.4786 18.8485 84.2226 19.6756C82.9665 20.5027 81.4816 20.915 79.7678 20.915C77.6847 20.915 75.8899 20.1809 74.3788 18.7103C72.8677 17.2397 72.1121 15.3424 72.1121 13.0138C72.1121 10.6851 72.8772 8.75213 74.4098 7.27199C75.94 5.79186 77.7776 5.05298 79.9204 5.05298C82.0631 5.05298 83.7125 5.75134 85.1116 7.15044C86.5107 8.54954 87.2496 10.361 87.3306 12.5848ZM79.9204 7.10277C78.6142 7.10277 77.4344 7.51511 76.3833 8.34217C75.3322 9.16924 74.6934 10.2871 74.4694 11.6957H84.9734C84.7684 10.2466 84.1963 9.11919 83.2573 8.31119C82.3182 7.50557 81.2051 7.10277 79.9204 7.10277Z" fill="#EBFFCB"/>
<path d="M97.9276 5.26746C98.3566 5.26746 98.7141 5.30798 99.0002 5.38901L98.8166 7.62471C98.6331 7.60564 98.3375 7.59373 97.9276 7.59373C95.9874 7.59373 94.493 8.2468 93.4419 9.55294C92.3908 10.8591 91.864 12.5752 91.864 14.6965V20.5145H89.5068V5.42H91.864V9.1263C93.2727 6.55453 95.2938 5.26746 97.9276 5.26746Z" fill="#EBFFCB"/>
<path d="M4.29028 10.647C4.29028 10.647 6.98361 12.5514 10.8568 10.4873" stroke="#EBFFCB" stroke-width="0.715042" stroke-miterlimit="10"/>
<path d="M3.5752 8.50186C3.5752 8.50186 6.60459 9.78893 10.9592 8.34216" stroke="#EBFFCB" stroke-width="0.715042" stroke-miterlimit="10"/>
<path d="M3.5752 6.35671C3.5752 6.35671 7.06222 7.64379 11.5741 6.19702" stroke="#EBFFCB" stroke-width="0.715042" stroke-miterlimit="10"/>
<path d="M2.38342 3.81354C2.38342 3.81354 6.56404 6.09453 12.6014 3.5752" stroke="#EBFFCB" stroke-width="0.715042" stroke-miterlimit="10"/>
<path d="M2.14514 1.2204C2.14514 1.2204 6.64752 3.50139 13.1496 0.982056" stroke="#EBFFCB" stroke-width="0.715042" stroke-miterlimit="10"/>
<path d="M17.1611 10.647C17.1611 10.647 19.8544 12.5514 23.7275 10.4873" stroke="#EBFFCB" stroke-width="0.715042" stroke-miterlimit="10"/>
<path d="M4.29028 13.0304C4.29028 13.0304 6.98361 14.9348 10.8568 12.8707" stroke="#EBFFCB" stroke-width="0.715042" stroke-miterlimit="10"/>
<path d="M17.1611 13.0304C17.1611 13.0304 19.8544 14.9348 23.7275 12.8707" stroke="#EBFFCB" stroke-width="0.715042" stroke-miterlimit="10"/>
<path d="M16.6845 8.50186C16.6845 8.50186 19.7926 9.78893 24.2568 8.34216" stroke="#EBFFCB" stroke-width="0.715042" stroke-miterlimit="10"/>
<path d="M16.2075 6.35671C16.2075 6.35671 19.7255 7.64379 24.2803 6.19702" stroke="#EBFFCB" stroke-width="0.715042" stroke-miterlimit="10"/>
<path d="M15.2545 3.81354C15.2545 3.81354 19.4923 6.09453 25.6154 3.5752" stroke="#EBFFCB" stroke-width="0.715042" stroke-miterlimit="10"/>
<path d="M14.3009 1.2204C14.3009 1.2204 19.3992 3.50139 26.7641 0.982056" stroke="#EBFFCB" stroke-width="0.715042" stroke-miterlimit="10"/>
</svg>
